<svg xmlns="http://www.w3.org/2000/svg" xmlns:xlink="http://www.w3.org/1999/xlink" width="558" zoomAndPan="magnify" viewBox="0 0 418.5 30.000001" height="40" preserveAspectRatio="xMidYMid meet" version="1.0"><defs><clipPath id="id1"><path d="M 6.507812 0 L 21 0 L 21 4 L 6.507812 4 Z M 6.507812 0 " clip-rule="nonzero"/></clipPath><clipPath id="id2"><path d="M 397 0 L 411.507812 0 L 411.507812 4 L 397 4 Z M 397 0 " clip-rule="nonzero"/></clipPath><clipPath id="id3"><path d="M 207 22 L 211 22 L 211 28.738281 L 207 28.738281 Z M 207 22 " clip-rule="nonzero"/></clipPath></defs><g clip-path="url(#id1)"><path fill="#000000" d="M 20.675781 1.691406 C 20.5625 1.714844 20.464844 1.734375 20.382812 1.757812 C 20.359375 1.757812 20.335938 1.765625 20.300781 1.773438 L 20.261719 1.773438 C 20.066406 1.832031 19.808594 1.898438 19.554688 1.972656 C 19.109375 2.101562 18.703125 2.257812 18.332031 2.4375 C 17.917969 2.644531 17.585938 2.871094 17.34375 3.117188 L 17.1875 3.273438 C 17.011719 3.273438 16.832031 3.289062 16.652344 3.289062 C 16.273438 3.300781 15.882812 3.308594 15.492188 3.308594 C 15.105469 3.308594 14.722656 3.308594 14.34375 3.308594 C 13.960938 3.308594 13.578125 3.289062 13.214844 3.273438 C 13.125 3.273438 13.027344 3.273438 12.9375 3.257812 L 12.785156 3.257812 C 12.785156 3.257812 12.71875 3.199219 12.6875 3.175781 C 12.542969 3.070312 12.371094 2.972656 12.199219 2.871094 C 12.023438 2.78125 11.84375 2.691406 11.648438 2.609375 C 11.269531 2.445312 10.855469 2.308594 10.433594 2.191406 C 9.589844 1.960938 8.738281 1.832031 8.015625 1.765625 C 7.410156 1.707031 6.898438 1.691406 6.507812 1.683594 C 6.898438 1.683594 7.417969 1.660156 8.015625 1.601562 C 8.738281 1.535156 9.597656 1.40625 10.433594 1.175781 C 10.855469 1.0625 11.269531 0.921875 11.648438 0.757812 C 11.84375 0.675781 12.023438 0.585938 12.199219 0.496094 C 12.371094 0.394531 12.542969 0.296875 12.6875 0.191406 C 12.71875 0.167969 12.753906 0.140625 12.785156 0.117188 L 12.9375 0.117188 L 13.214844 0.101562 C 13.585938 0.0859375 13.960938 0.078125 14.34375 0.0703125 C 14.4375 0.0703125 14.535156 0.0703125 14.625 0.0703125 L 15.492188 0.0703125 C 15.882812 0.0703125 16.265625 0.0703125 16.644531 0.0859375 C 16.824219 0.0859375 17.003906 0.09375 17.179688 0.101562 L 17.335938 0.257812 C 17.578125 0.503906 17.910156 0.734375 18.324219 0.9375 C 18.6875 1.117188 19.101562 1.273438 19.546875 1.414062 C 19.898438 1.519531 20.292969 1.617188 20.707031 1.699219 L 20.652344 1.699219 Z M 20.675781 1.691406 " fill-opacity="1" fill-rule="nonzero"/></g><g clip-path="url(#id2)"><path fill="#000000" d="M 410.484375 1.757812 C 409.761719 1.824219 408.902344 1.953125 408.066406 2.183594 C 407.644531 2.296875 407.230469 2.4375 406.851562 2.601562 C 406.65625 2.683594 406.476562 2.773438 406.300781 2.863281 C 406.128906 2.960938 405.957031 3.0625 405.8125 3.167969 C 405.78125 3.191406 405.746094 3.21875 405.714844 3.242188 L 405.5625 3.242188 C 405.472656 3.25 405.375 3.257812 405.285156 3.257812 C 404.914062 3.273438 404.539062 3.28125 404.15625 3.289062 C 403.777344 3.289062 403.386719 3.300781 403.007812 3.289062 C 402.617188 3.289062 402.234375 3.289062 401.847656 3.273438 C 401.667969 3.273438 401.488281 3.265625 401.3125 3.257812 L 401.15625 3.101562 C 400.914062 2.855469 400.582031 2.636719 400.167969 2.421875 C 399.804688 2.242188 399.390625 2.085938 398.945312 1.945312 C 398.691406 1.871094 398.433594 1.808594 398.238281 1.757812 L 398.199219 1.757812 C 398.199219 1.757812 398.148438 1.734375 398.117188 1.734375 C 398.035156 1.714844 397.9375 1.691406 397.824219 1.667969 L 397.765625 1.667969 C 398.1875 1.578125 398.578125 1.480469 398.925781 1.371094 C 399.375 1.242188 399.785156 1.085938 400.152344 0.90625 C 400.566406 0.699219 400.90625 0.46875 401.140625 0.222656 L 401.296875 0.0703125 C 401.472656 0.0703125 401.652344 0.0507812 401.832031 0.0507812 C 402.210938 0.0429688 402.601562 0.0351562 402.980469 0.0351562 L 403.851562 0.0351562 C 403.945312 0.0351562 404.042969 0.0351562 404.132812 0.0351562 C 404.515625 0.0351562 404.886719 0.0507812 405.261719 0.0703125 L 405.535156 0.0859375 L 405.691406 0.0859375 C 405.691406 0.0859375 405.753906 0.140625 405.789062 0.167969 C 405.933594 0.273438 406.105469 0.371094 406.273438 0.46875 C 406.453125 0.558594 406.632812 0.652344 406.824219 0.734375 C 407.207031 0.898438 407.621094 1.035156 408.042969 1.152344 C 408.886719 1.378906 409.738281 1.511719 410.460938 1.578125 C 411.066406 1.632812 411.578125 1.652344 411.96875 1.660156 C 411.578125 1.660156 411.058594 1.683594 410.460938 1.742188 Z M 410.484375 1.757812 " fill-opacity="1" fill-rule="nonzero"/></g><path fill="#000000" d="M 395.082031 3.019531 C 394.351562 3.019531 393.753906 2.421875 393.753906 1.675781 C 393.753906 0.929688 394.34375 0.332031 395.082031 0.332031 C 395.820312 0.332031 396.414062 0.929688 396.414062 1.675781 C 396.414062 2.421875 395.820312 3.019531 395.082031 3.019531 Z M 395.082031 3.019531 " fill-opacity="1" fill-rule="nonzero"/><path fill="#000000" d="M 24.746094 1.683594 C 24.746094 1.503906 24.714844 1.332031 24.644531 1.167969 C 24.578125 1.003906 24.480469 0.859375 24.355469 0.734375 C 24.234375 0.605469 24.089844 0.507812 23.925781 0.441406 C 23.761719 0.375 23.59375 0.339844 23.417969 0.339844 C 23.242188 0.339844 23.070312 0.375 22.90625 0.441406 C 22.746094 0.507812 22.601562 0.605469 22.476562 0.734375 C 22.351562 0.859375 22.253906 1.003906 22.1875 1.167969 C 22.121094 1.332031 22.085938 1.503906 22.085938 1.683594 C 22.085938 1.863281 22.121094 2.035156 22.1875 2.199219 C 22.253906 2.363281 22.351562 2.507812 22.476562 2.632812 C 22.601562 2.761719 22.746094 2.859375 22.90625 2.925781 C 23.070312 2.996094 23.242188 3.027344 23.417969 3.027344 C 23.59375 3.027344 23.761719 2.996094 23.925781 2.925781 C 24.089844 2.859375 24.234375 2.761719 24.355469 2.632812 C 24.480469 2.507812 24.578125 2.363281 24.644531 2.199219 C 24.714844 2.035156 24.746094 1.863281 24.746094 1.683594 Z M 24.746094 1.683594 " fill-opacity="1" fill-rule="nonzero"/><path fill="#000000" d="M 391.878906 2.996094 C 391.34375 2.996094 390.882812 2.667969 390.6875 2.199219 L 386.730469 2.199219 C 386.542969 2.542969 386.179688 2.78125 385.765625 2.78125 C 385.351562 2.78125 384.988281 2.542969 384.800781 2.199219 L 33.699219 2.199219 C 33.511719 2.542969 33.148438 2.78125 32.734375 2.78125 C 32.320312 2.78125 31.957031 2.542969 31.769531 2.199219 L 27.8125 2.199219 C 27.609375 2.667969 27.15625 2.996094 26.621094 2.996094 C 25.898438 2.996094 25.3125 2.40625 25.3125 1.675781 C 25.3125 0.945312 25.898438 0.355469 26.621094 0.355469 C 27.15625 0.355469 27.617188 0.683594 27.8125 1.152344 L 31.769531 1.152344 C 31.957031 0.804688 32.320312 0.570312 32.734375 0.570312 C 33.148438 0.570312 33.511719 0.804688 33.699219 1.152344 L 384.800781 1.152344 C 384.988281 0.804688 385.351562 0.570312 385.765625 0.570312 C 386.179688 0.570312 386.542969 0.804688 386.730469 1.152344 L 390.6875 1.152344 C 390.890625 0.683594 391.34375 0.355469 391.878906 0.355469 C 392.601562 0.355469 393.1875 0.945312 393.1875 1.675781 C 393.1875 2.40625 392.601562 2.996094 391.878906 2.996094 Z M 391.878906 2.996094 " fill-opacity="1" fill-rule="nonzero"/><g clip-path="url(#id3)"><path fill="#000000" d="M 208.015625 24.804688 C 208.148438 24.257812 208.390625 23.722656 208.707031 23.25 C 208.867188 23.011719 209.046875 22.789062 209.242188 22.574219 L 209.257812 22.558594 L 209.273438 22.574219 C 209.46875 22.78125 209.648438 23.011719 209.808594 23.25 C 210.125 23.722656 210.367188 24.25 210.5 24.804688 C 210.5625 25.085938 210.605469 25.363281 210.613281 25.640625 C 210.613281 25.921875 210.597656 26.207031 210.539062 26.480469 L 210.539062 26.519531 L 210.523438 26.5625 L 210.507812 26.632812 C 210.492188 26.683594 210.484375 26.742188 210.464844 26.789062 C 210.433594 26.886719 210.402344 26.996094 210.359375 27.09375 L 210.328125 27.167969 C 210.328125 27.167969 210.304688 27.214844 210.296875 27.242188 L 210.28125 27.273438 L 210.265625 27.308594 L 210.230469 27.378906 L 210.191406 27.453125 L 210.175781 27.488281 L 210.160156 27.519531 L 210.117188 27.585938 C 210.117188 27.585938 210.09375 27.625 210.078125 27.644531 C 210.019531 27.726562 209.957031 27.808594 209.882812 27.878906 C 209.808594 27.953125 209.738281 28.035156 209.664062 28.101562 C 209.589844 28.167969 209.507812 28.234375 209.4375 28.273438 C 209.394531 28.300781 209.363281 28.316406 209.332031 28.324219 L 209.289062 28.324219 L 209.289062 28.347656 L 209.273438 28.347656 C 209.273438 28.347656 209.25 28.347656 209.21875 28.332031 C 209.183594 28.324219 209.152344 28.300781 209.113281 28.28125 C 209.039062 28.234375 208.957031 28.175781 208.886719 28.109375 C 208.8125 28.042969 208.730469 27.972656 208.667969 27.890625 C 208.59375 27.816406 208.527344 27.734375 208.472656 27.652344 C 208.457031 27.636719 208.445312 27.609375 208.429688 27.59375 L 208.390625 27.527344 L 208.375 27.496094 L 208.359375 27.460938 L 208.316406 27.390625 L 208.285156 27.316406 L 208.269531 27.28125 L 208.253906 27.25 C 208.253906 27.25 208.226562 27.199219 208.21875 27.175781 L 208.1875 27.101562 C 208.148438 27.003906 208.113281 26.90625 208.082031 26.796875 C 208.066406 26.75 208.050781 26.699219 208.042969 26.644531 L 208.023438 26.570312 L 208.023438 26.527344 L 208.007812 26.488281 C 207.953125 26.214844 207.929688 25.929688 207.9375 25.652344 C 207.9375 25.371094 207.984375 25.085938 208.050781 24.8125 Z M 208.015625 24.804688 " fill-opacity="1" fill-rule="nonzero"/></g><path fill="#000000" d="M 207.921875 18.378906 C 208.398438 17.910156 208.84375 17.402344 209.25 16.867188 C 209.65625 17.402344 210.101562 17.910156 210.578125 18.378906 C 210.554688 18.394531 210.53125 18.417969 210.507812 18.433594 L 210.378906 18.550781 C 210.289062 18.625 210.199219 18.699219 210.101562 18.78125 C 210.011719 18.851562 209.914062 18.925781 209.824219 19 L 209.6875 19.109375 C 209.640625 19.140625 209.589844 19.179688 209.542969 19.214844 C 209.445312 19.289062 209.347656 19.351562 209.25 19.417969 C 209.152344 19.351562 209.054688 19.28125 208.957031 19.214844 C 208.910156 19.179688 208.859375 19.148438 208.8125 19.109375 L 208.675781 19 C 208.578125 18.925781 208.488281 18.851562 208.398438 18.78125 C 208.308594 18.707031 208.210938 18.632812 208.121094 18.550781 L 207.992188 18.433594 C 207.992188 18.433594 207.945312 18.394531 207.921875 18.378906 Z M 207.921875 18.378906 " fill-opacity="1" fill-rule="nonzero"/><path fill="#000000" d="M 208.269531 20.765625 L 208.351562 20.722656 C 208.457031 20.664062 208.570312 20.609375 208.675781 20.542969 C 208.867188 20.425781 209.0625 20.3125 209.25 20.191406 C 209.4375 20.3125 209.632812 20.425781 209.824219 20.542969 C 209.929688 20.609375 210.042969 20.664062 210.148438 20.722656 L 210.230469 20.765625 L 210.3125 20.804688 L 210.472656 20.886719 L 210.296875 20.976562 C 210.011719 21.125 209.738281 21.296875 209.484375 21.492188 C 209.402344 21.558594 209.324219 21.617188 209.25 21.683594 C 209.167969 21.617188 209.097656 21.550781 209.015625 21.492188 C 208.761719 21.296875 208.488281 21.125 208.203125 20.976562 L 208.027344 20.886719 L 208.1875 20.804688 Z M 208.269531 20.765625 " fill-opacity="1" fill-rule="nonzero"/><path fill="#000000" d="M 171.160156 6.019531 C 171.160156 6.019531 171.199219 6.0625 171.222656 6.078125 L 171.296875 6.144531 C 171.507812 6.324219 171.824219 6.578125 172.277344 6.839844 C 172.722656 7.105469 173.300781 7.382812 173.988281 7.628906 C 174.335938 7.75 174.710938 7.875 175.109375 7.988281 C 175.515625 8.105469 175.933594 8.210938 176.382812 8.300781 C 176.828125 8.390625 177.304688 8.464844 177.800781 8.515625 C 177.921875 8.53125 178.050781 8.539062 178.171875 8.546875 C 178.238281 8.546875 178.304688 8.554688 178.367188 8.5625 C 178.433594 8.5625 178.5 8.570312 178.5625 8.578125 L 178.757812 8.578125 L 178.855469 8.597656 L 179.15625 8.597656 L 179.359375 8.613281 C 179.894531 8.621094 180.445312 8.597656 181.019531 8.554688 C 181.589844 8.515625 182.171875 8.441406 182.773438 8.339844 C 183.363281 8.242188 183.972656 8.121094 184.589844 7.972656 C 185.203125 7.824219 185.828125 7.652344 186.460938 7.457031 C 187.09375 7.257812 187.726562 7.054688 188.367188 6.808594 C 189.007812 6.570312 189.65625 6.308594 190.304688 6.03125 C 190.960938 5.75 191.613281 5.480469 192.261719 5.210938 C 192.585938 5.078125 192.910156 4.945312 193.234375 4.816406 L 193.476562 4.71875 C 193.558594 4.683594 193.648438 4.652344 193.726562 4.628906 C 193.890625 4.5625 194.0625 4.503906 194.230469 4.445312 C 194.269531 4.429688 194.3125 4.421875 194.351562 4.40625 L 194.472656 4.363281 L 194.597656 4.324219 L 194.660156 4.308594 L 194.726562 4.292969 C 194.894531 4.242188 195.058594 4.191406 195.226562 4.152344 C 195.308594 4.128906 195.398438 4.109375 195.480469 4.085938 L 195.730469 4.027344 C 195.773438 4.019531 195.8125 4.011719 195.851562 4.003906 L 195.972656 3.980469 L 196.226562 3.929688 C 196.890625 3.808594 197.546875 3.726562 198.195312 3.683594 L 198.441406 3.683594 C 198.519531 3.667969 198.601562 3.667969 198.683594 3.667969 L 198.917969 3.667969 C 199 3.667969 199.082031 3.667969 199.152344 3.667969 C 199.308594 3.667969 199.46875 3.667969 199.625 3.683594 L 199.859375 3.683594 C 199.941406 3.699219 200.011719 3.710938 200.09375 3.71875 C 200.25 3.726562 200.402344 3.75 200.546875 3.765625 C 200.621094 3.765625 200.703125 3.789062 200.773438 3.800781 C 200.847656 3.808594 200.921875 3.824219 200.996094 3.832031 L 201.214844 3.871094 L 201.320312 3.890625 L 201.425781 3.914062 L 201.636719 3.964844 C 201.636719 3.964844 201.707031 3.980469 201.742188 3.988281 L 201.847656 4.011719 C 202.40625 4.152344 202.933594 4.332031 203.425781 4.539062 C 203.921875 4.742188 204.375 4.980469 204.796875 5.226562 C 205.21875 5.472656 205.59375 5.742188 205.941406 6.011719 C 206.03125 6.078125 206.113281 6.144531 206.191406 6.21875 L 206.3125 6.316406 L 206.371094 6.367188 C 206.371094 6.367188 206.410156 6.398438 206.429688 6.414062 C 206.5 6.480469 206.582031 6.554688 206.65625 6.621094 L 206.867188 6.824219 C 206.867188 6.824219 206.929688 6.890625 206.964844 6.921875 L 207.058594 7.023438 C 207.058594 7.023438 207.125 7.085938 207.15625 7.121094 L 207.335938 7.316406 L 207.375 7.367188 L 207.417969 7.414062 L 207.578125 7.613281 C 207.578125 7.613281 207.628906 7.675781 207.652344 7.710938 L 207.726562 7.800781 C 207.773438 7.867188 207.824219 7.921875 207.863281 7.980469 C 207.953125 8.105469 208.035156 8.21875 208.105469 8.324219 L 208.210938 8.488281 C 208.246094 8.539062 208.277344 8.597656 208.308594 8.644531 L 208.398438 8.792969 C 208.429688 8.84375 208.457031 8.890625 208.480469 8.933594 L 208.550781 9.0625 L 208.585938 9.121094 L 208.617188 9.179688 L 208.722656 9.390625 C 208.753906 9.457031 208.78125 9.507812 208.804688 9.554688 L 208.859375 9.679688 L 208.910156 9.777344 L 208.851562 9.6875 L 208.78125 9.570312 C 208.746094 9.53125 208.714844 9.472656 208.675781 9.414062 L 208.535156 9.226562 L 208.496094 9.167969 L 208.457031 9.113281 L 208.367188 8.996094 C 208.367188 8.996094 208.300781 8.914062 208.269531 8.875 L 208.164062 8.742188 C 208.121094 8.703125 208.089844 8.652344 208.050781 8.605469 L 207.929688 8.457031 C 207.847656 8.359375 207.75 8.257812 207.652344 8.152344 C 207.605469 8.09375 207.546875 8.046875 207.5 7.996094 L 207.417969 7.914062 C 207.417969 7.914062 207.359375 7.859375 207.335938 7.832031 L 207.15625 7.667969 L 207.109375 7.628906 L 207.058594 7.585938 L 206.964844 7.503906 L 206.867188 7.421875 C 206.867188 7.421875 206.800781 7.367188 206.769531 7.339844 L 206.664062 7.257812 C 206.664062 7.257812 206.589844 7.203125 206.558594 7.167969 C 205.980469 6.710938 205.285156 6.257812 204.464844 5.867188 C 204.050781 5.667969 203.613281 5.496094 203.144531 5.347656 C 202.671875 5.203125 202.179688 5.078125 201.660156 4.988281 L 201.5625 4.972656 C 201.5625 4.972656 201.496094 4.964844 201.464844 4.957031 L 201.269531 4.929688 L 201.171875 4.914062 L 201.074219 4.914062 L 200.871094 4.882812 C 200.808594 4.882812 200.734375 4.875 200.671875 4.863281 C 200.605469 4.863281 200.53125 4.855469 200.46875 4.847656 C 200.328125 4.847656 200.191406 4.832031 200.054688 4.832031 C 199.980469 4.832031 199.914062 4.832031 199.84375 4.832031 L 199.632812 4.832031 C 199.484375 4.832031 199.347656 4.839844 199.203125 4.847656 C 199.128906 4.847656 199.054688 4.847656 198.984375 4.863281 L 198.765625 4.882812 C 198.691406 4.882812 198.617188 4.898438 198.546875 4.898438 L 198.433594 4.898438 L 198.375 4.914062 L 198.316406 4.914062 C 197.726562 4.988281 197.125 5.085938 196.519531 5.234375 L 196.289062 5.292969 L 196.175781 5.316406 C 196.175781 5.316406 196.105469 5.339844 196.0625 5.347656 L 195.835938 5.414062 C 195.761719 5.4375 195.683594 5.464844 195.609375 5.480469 C 195.457031 5.519531 195.308594 5.578125 195.15625 5.628906 L 195.097656 5.644531 L 195.042969 5.660156 L 194.929688 5.703125 L 194.816406 5.742188 C 194.816406 5.742188 194.742188 5.765625 194.703125 5.785156 C 194.546875 5.839844 194.402344 5.898438 194.246094 5.957031 C 194.175781 5.988281 194.09375 6.011719 194.019531 6.046875 L 193.785156 6.144531 C 193.46875 6.277344 193.152344 6.414062 192.835938 6.546875 C 192.195312 6.824219 191.546875 7.105469 190.882812 7.382812 C 190.214844 7.660156 189.542969 7.921875 188.878906 8.167969 C 188.207031 8.414062 187.53125 8.621094 186.867188 8.800781 C 186.203125 8.980469 185.539062 9.136719 184.886719 9.269531 C 184.230469 9.390625 183.589844 9.488281 182.949219 9.554688 C 182.316406 9.621094 181.691406 9.660156 181.09375 9.660156 C 180.484375 9.660156 179.902344 9.644531 179.332031 9.597656 L 179.121094 9.578125 L 178.910156 9.554688 L 178.804688 9.554688 L 178.699219 9.53125 L 178.5 9.507812 C 178.433594 9.496094 178.359375 9.488281 178.296875 9.472656 C 178.230469 9.464844 178.164062 9.457031 178.09375 9.441406 C 177.960938 9.414062 177.832031 9.398438 177.703125 9.367188 C 177.183594 9.269531 176.699219 9.144531 176.234375 9.003906 C 175.773438 8.867188 175.34375 8.710938 174.945312 8.546875 C 174.546875 8.382812 174.175781 8.21875 173.835938 8.046875 C 173.152344 7.710938 172.601562 7.347656 172.171875 7.023438 C 171.75 6.695312 171.457031 6.390625 171.28125 6.175781 L 171.214844 6.101562 C 171.214844 6.101562 171.175781 6.054688 171.160156 6.039062 C 171.125 5.996094 171.09375 5.964844 171.078125 5.929688 L 171.011719 5.839844 L 171.085938 5.914062 C 171.085938 5.914062 171.144531 5.972656 171.183594 6.003906 Z M 171.160156 6.019531 " fill-opacity="1" fill-rule="nonzero"/><path fill="#000000" d="M 184.871094 12.882812 C 184.914062 12.761719 184.960938 12.628906 185.027344 12.515625 C 185.089844 12.390625 185.164062 12.277344 185.246094 12.171875 C 185.328125 12.0625 185.414062 11.957031 185.519531 11.859375 C 185.722656 11.671875 185.960938 11.515625 186.210938 11.398438 C 186.460938 11.285156 186.738281 11.21875 187.011719 11.210938 C 187.152344 11.203125 187.289062 11.210938 187.425781 11.226562 C 187.441406 11.226562 187.460938 11.226562 187.476562 11.226562 L 187.523438 11.226562 C 187.523438 11.226562 187.589844 11.246094 187.621094 11.253906 C 187.652344 11.253906 187.6875 11.269531 187.726562 11.277344 L 187.777344 11.292969 C 187.777344 11.292969 187.808594 11.300781 187.824219 11.308594 C 188.09375 11.398438 188.328125 11.539062 188.523438 11.71875 C 188.714844 11.898438 188.863281 12.113281 188.96875 12.34375 C 189.066406 12.574219 189.121094 12.808594 189.121094 13.03125 C 189.121094 13.144531 189.121094 13.253906 189.105469 13.359375 C 189.105469 13.382812 189.097656 13.410156 189.089844 13.441406 C 189.089844 13.464844 189.082031 13.492188 189.074219 13.523438 C 189.074219 13.546875 189.058594 13.574219 189.046875 13.597656 C 189.046875 13.621094 189.03125 13.648438 189.023438 13.671875 C 188.953125 13.867188 188.847656 14.03125 188.722656 14.15625 C 188.601562 14.285156 188.464844 14.375 188.34375 14.441406 C 188.214844 14.507812 188.09375 14.539062 187.976562 14.566406 C 187.863281 14.582031 187.777344 14.589844 187.695312 14.582031 C 187.652344 14.582031 187.621094 14.582031 187.589844 14.574219 C 187.554688 14.574219 187.53125 14.574219 187.515625 14.566406 L 187.460938 14.546875 L 187.515625 14.546875 C 187.515625 14.546875 187.554688 14.546875 187.589844 14.546875 C 187.621094 14.546875 187.652344 14.546875 187.6875 14.539062 C 187.757812 14.53125 187.847656 14.515625 187.945312 14.476562 C 188.042969 14.441406 188.148438 14.382812 188.253906 14.3125 C 188.359375 14.238281 188.457031 14.136719 188.539062 14.007812 C 188.617188 13.882812 188.683594 13.738281 188.714844 13.582031 C 188.75 13.425781 188.75 13.246094 188.714844 13.074219 C 188.683594 12.902344 188.617188 12.726562 188.523438 12.574219 C 188.425781 12.417969 188.292969 12.277344 188.148438 12.179688 C 187.996094 12.074219 187.824219 12 187.644531 11.964844 L 187.582031 11.964844 C 187.582031 11.964844 187.53125 11.949219 187.515625 11.949219 C 187.492188 11.949219 187.46875 11.949219 187.441406 11.949219 L 187.410156 11.949219 C 187.410156 11.949219 187.386719 11.949219 187.378906 11.949219 C 187.28125 11.949219 187.191406 11.949219 187.09375 11.972656 C 186.90625 12.007812 186.730469 12.074219 186.574219 12.164062 C 186.414062 12.253906 186.273438 12.367188 186.152344 12.5 C 186.097656 12.5625 186.039062 12.636719 186 12.710938 C 185.949219 12.785156 185.910156 12.859375 185.878906 12.933594 C 185.84375 13.007812 185.820312 13.089844 185.796875 13.171875 C 185.78125 13.253906 185.765625 13.328125 185.757812 13.410156 C 185.738281 13.574219 185.738281 13.738281 185.757812 13.894531 C 185.757812 13.964844 185.773438 14.046875 185.789062 14.121094 C 185.789062 14.136719 185.796875 14.164062 185.804688 14.179688 C 185.804688 14.195312 185.804688 14.21875 185.820312 14.238281 C 185.828125 14.277344 185.84375 14.320312 185.855469 14.359375 C 185.855469 14.375 185.871094 14.402344 185.871094 14.417969 L 185.894531 14.476562 L 185.894531 14.507812 L 185.917969 14.539062 L 185.941406 14.597656 L 185.96875 14.65625 L 185.984375 14.6875 L 186 14.722656 L 186.03125 14.777344 L 186.0625 14.835938 L 186.082031 14.867188 L 186.097656 14.894531 L 186.136719 14.949219 L 186.179688 15.007812 L 186.195312 15.03125 L 186.21875 15.058594 L 186.257812 15.113281 L 186.308594 15.164062 C 186.308594 15.164062 186.339844 15.195312 186.355469 15.210938 C 186.371094 15.230469 186.390625 15.246094 186.40625 15.261719 C 186.4375 15.292969 186.46875 15.328125 186.511719 15.359375 C 186.542969 15.394531 186.582031 15.417969 186.625 15.449219 C 186.640625 15.46875 186.664062 15.476562 186.679688 15.492188 L 186.714844 15.515625 L 186.746094 15.53125 L 186.800781 15.574219 L 186.867188 15.605469 C 186.867188 15.605469 186.90625 15.632812 186.933594 15.640625 C 186.957031 15.648438 186.972656 15.664062 186.996094 15.671875 C 187.039062 15.6875 187.085938 15.710938 187.136719 15.730469 C 187.183594 15.746094 187.222656 15.761719 187.273438 15.777344 C 187.296875 15.785156 187.320312 15.792969 187.347656 15.804688 C 187.371094 15.804688 187.394531 15.820312 187.417969 15.820312 L 187.492188 15.835938 C 187.492188 15.835938 187.539062 15.84375 187.566406 15.851562 L 187.636719 15.867188 L 187.710938 15.867188 C 187.710938 15.867188 187.757812 15.886719 187.785156 15.886719 L 187.855469 15.886719 C 187.90625 15.894531 187.960938 15.894531 188.011719 15.902344 C 188.214844 15.902344 188.425781 15.894531 188.617188 15.851562 C 188.820312 15.8125 189.007812 15.753906 189.195312 15.679688 C 189.558594 15.523438 189.875 15.304688 190.128906 15.066406 C 190.160156 15.03125 190.191406 15.007812 190.214844 14.976562 L 190.296875 14.882812 L 190.378906 14.785156 L 190.410156 14.738281 L 190.445312 14.6875 L 190.476562 14.640625 L 190.507812 14.589844 C 190.507812 14.589844 190.550781 14.523438 190.574219 14.5 L 190.628906 14.410156 L 190.644531 14.382812 L 190.664062 14.359375 L 190.6875 14.320312 C 190.734375 14.238281 190.777344 14.148438 190.816406 14.054688 C 190.875 13.917969 190.898438 13.761719 190.929688 13.613281 C 190.960938 13.457031 191.003906 13.308594 191.042969 13.15625 C 191.132812 12.835938 191.238281 12.523438 191.359375 12.210938 C 191.367188 12.179688 191.382812 12.15625 191.390625 12.121094 C 191.628906 11.53125 191.9375 10.933594 192.316406 10.351562 C 192.699219 9.769531 193.160156 9.195312 193.703125 8.667969 C 193.972656 8.40625 194.261719 8.152344 194.570312 7.921875 C 194.878906 7.6875 195.203125 7.464844 195.542969 7.257812 C 196.226562 6.847656 196.972656 6.519531 197.75 6.277344 L 197.894531 6.234375 C 197.945312 6.21875 197.992188 6.203125 198.042969 6.195312 L 198.1875 6.152344 L 198.335938 6.121094 C 198.535156 6.070312 198.746094 6.03125 198.949219 5.996094 C 199.363281 5.929688 199.792969 5.898438 200.214844 5.890625 C 201.066406 5.890625 201.925781 6.019531 202.738281 6.277344 C 203.550781 6.539062 204.328125 6.914062 205.015625 7.40625 C 205.707031 7.890625 206.324219 8.472656 206.824219 9.121094 C 207.335938 9.769531 207.734375 10.472656 208.027344 11.195312 L 208.082031 11.335938 L 208.128906 11.472656 L 208.15625 11.539062 L 208.179688 11.605469 L 208.226562 11.746094 C 208.285156 11.925781 208.339844 12.105469 208.382812 12.292969 C 208.390625 12.34375 208.40625 12.382812 208.414062 12.433594 L 208.445312 12.574219 C 208.445312 12.574219 208.457031 12.613281 208.464844 12.636719 L 208.480469 12.710938 L 208.527344 12.992188 L 208.542969 13.128906 L 208.5625 13.269531 C 208.5625 13.320312 208.578125 13.359375 208.578125 13.410156 L 208.601562 13.6875 C 208.601562 13.6875 208.601562 13.738281 208.601562 13.761719 L 208.601562 14.546875 L 208.585938 14.695312 C 208.585938 14.746094 208.585938 14.792969 208.570312 14.84375 L 208.527344 15.140625 C 208.511719 15.238281 208.496094 15.335938 208.480469 15.433594 C 208.480469 15.457031 208.472656 15.484375 208.464844 15.507812 L 208.445312 15.582031 L 208.414062 15.730469 C 208.324219 16.121094 208.195312 16.507812 208.035156 16.886719 L 207.96875 17.023438 L 207.9375 17.097656 C 207.9375 17.097656 207.910156 17.148438 207.902344 17.171875 L 207.765625 17.449219 C 207.71875 17.542969 207.660156 17.632812 207.613281 17.722656 L 207.59375 17.753906 L 207.570312 17.789062 L 207.53125 17.851562 L 207.449219 17.984375 C 206.988281 18.6875 206.386719 19.320312 205.683594 19.828125 C 204.976562 20.335938 204.171875 20.714844 203.320312 20.917969 C 203.273438 20.9375 203.214844 20.945312 203.160156 20.953125 L 202.996094 20.984375 L 202.917969 21 C 202.917969 21 202.859375 21.007812 202.835938 21.019531 L 202.664062 21.042969 C 202.609375 21.050781 202.550781 21.058594 202.496094 21.058594 L 202.324219 21.074219 L 202.152344 21.074219 L 202.074219 21.089844 L 201.992188 21.089844 C 201.546875 21.101562 201.089844 21.058594 200.652344 20.960938 C 200.214844 20.863281 199.792969 20.707031 199.398438 20.507812 L 199.355469 20.492188 C 199.355469 20.492188 199.332031 20.476562 199.316406 20.476562 L 199.242188 20.4375 C 199.195312 20.410156 199.144531 20.386719 199.097656 20.355469 L 198.957031 20.273438 L 198.886719 20.230469 C 198.886719 20.230469 198.835938 20.199219 198.820312 20.179688 L 198.683594 20.089844 C 198.683594 20.089844 198.632812 20.058594 198.617188 20.042969 L 198.554688 19.992188 L 198.488281 19.945312 C 198.488281 19.945312 198.449219 19.910156 198.421875 19.894531 L 198.292969 19.789062 C 197.960938 19.507812 197.660156 19.1875 197.402344 18.84375 C 197.140625 18.5 196.929688 18.132812 196.761719 17.738281 C 196.589844 17.351562 196.476562 16.949219 196.394531 16.550781 L 196.378906 16.476562 C 196.378906 16.476562 196.378906 16.425781 196.371094 16.402344 L 196.347656 16.246094 C 196.347656 16.195312 196.339844 16.140625 196.332031 16.089844 L 196.332031 16.015625 C 196.332031 16.015625 196.324219 15.96875 196.324219 15.941406 L 196.324219 15.484375 C 196.324219 15.433594 196.324219 15.386719 196.332031 15.328125 C 196.363281 14.925781 196.453125 14.53125 196.589844 14.171875 C 196.71875 13.800781 196.90625 13.464844 197.109375 13.164062 C 197.214844 13.015625 197.328125 12.867188 197.449219 12.738281 L 197.523438 12.664062 L 197.546875 12.636719 L 197.644531 12.539062 C 197.644531 12.539062 197.710938 12.480469 197.742188 12.449219 C 197.773438 12.417969 197.808594 12.390625 197.839844 12.359375 C 198.105469 12.128906 198.390625 11.941406 198.683594 11.792969 C 198.976562 11.644531 199.273438 11.539062 199.574219 11.464844 L 199.800781 11.417969 C 199.800781 11.417969 199.875 11.398438 199.914062 11.390625 L 200.027344 11.375 C 200.027344 11.375 200.070312 11.375 200.085938 11.375 L 200.144531 11.375 L 200.257812 11.359375 L 200.417969 11.359375 C 200.417969 11.359375 200.449219 11.359375 200.476562 11.359375 C 200.765625 11.359375 201.042969 11.398438 201.292969 11.464844 C 201.554688 11.53125 201.789062 11.628906 202 11.734375 C 202.210938 11.851562 202.398438 11.972656 202.558594 12.113281 C 202.722656 12.253906 202.867188 12.390625 202.980469 12.539062 C 203.101562 12.679688 203.199219 12.828125 203.28125 12.964844 C 203.363281 13.105469 203.425781 13.238281 203.476562 13.351562 L 203.507812 13.441406 L 203.523438 13.484375 C 203.523438 13.484375 203.53125 13.507812 203.539062 13.523438 L 203.566406 13.605469 L 203.582031 13.648438 L 203.582031 13.679688 C 203.605469 13.730469 203.621094 13.769531 203.628906 13.8125 L 203.652344 13.917969 C 203.652344 13.917969 203.652344 13.949219 203.664062 13.964844 L 203.664062 14.007812 L 203.679688 14.074219 L 203.652344 14.015625 L 203.652344 13.976562 C 203.652344 13.976562 203.628906 13.941406 203.628906 13.933594 L 203.589844 13.828125 C 203.589844 13.828125 203.558594 13.746094 203.539062 13.703125 L 203.523438 13.671875 L 203.476562 13.566406 C 203.476562 13.566406 203.46875 13.539062 203.460938 13.523438 L 203.433594 13.484375 L 203.394531 13.402344 C 203.328125 13.292969 203.265625 13.171875 203.167969 13.046875 C 203.078125 12.925781 202.972656 12.800781 202.84375 12.679688 C 202.714844 12.554688 202.574219 12.433594 202.40625 12.328125 C 202.242188 12.21875 202.058594 12.113281 201.855469 12.03125 C 201.652344 11.949219 201.433594 11.890625 201.207031 11.851562 C 200.976562 11.808594 200.726562 11.808594 200.484375 11.828125 C 200.230469 11.851562 199.988281 11.910156 199.730469 12 C 199.476562 12.089844 199.226562 12.203125 198.992188 12.359375 C 198.757812 12.515625 198.527344 12.695312 198.328125 12.902344 C 198.300781 12.925781 198.277344 12.957031 198.253906 12.984375 C 198.230469 13.007812 198.203125 13.039062 198.179688 13.066406 L 198.105469 13.144531 L 198.089844 13.171875 L 198.074219 13.195312 L 198.042969 13.238281 C 197.953125 13.351562 197.871094 13.484375 197.800781 13.613281 C 197.5 14.136719 197.328125 14.753906 197.328125 15.386719 C 197.328125 15.425781 197.328125 15.46875 197.328125 15.5 L 197.328125 15.613281 L 197.34375 15.730469 L 197.359375 15.84375 C 197.359375 15.84375 197.359375 15.886719 197.359375 15.902344 L 197.359375 15.957031 C 197.359375 15.957031 197.386719 16.039062 197.394531 16.074219 L 197.417969 16.1875 C 197.417969 16.1875 197.425781 16.230469 197.433594 16.246094 L 197.449219 16.304688 C 197.539062 16.621094 197.660156 16.925781 197.816406 17.222656 C 197.96875 17.515625 198.164062 17.789062 198.382812 18.042969 C 198.601562 18.289062 198.84375 18.515625 199.121094 18.714844 L 199.226562 18.789062 C 199.226562 18.789062 199.257812 18.8125 199.273438 18.820312 L 199.324219 18.851562 L 199.371094 18.886719 C 199.371094 18.886719 199.40625 18.910156 199.429688 18.917969 L 199.535156 18.976562 C 199.535156 18.976562 199.566406 19 199.589844 19.007812 L 199.648438 19.035156 L 199.761719 19.089844 C 199.761719 19.089844 199.835938 19.125 199.875 19.140625 L 199.933594 19.164062 L 199.957031 19.179688 L 199.988281 19.179688 C 200.296875 19.3125 200.613281 19.402344 200.9375 19.460938 C 201.261719 19.507812 201.585938 19.515625 201.910156 19.492188 L 201.96875 19.492188 L 202.023438 19.476562 L 202.144531 19.460938 L 202.265625 19.433594 C 202.265625 19.433594 202.347656 19.425781 202.390625 19.410156 L 202.511719 19.386719 C 202.511719 19.386719 202.550781 19.378906 202.566406 19.371094 L 202.625 19.351562 L 202.746094 19.320312 C 202.746094 19.320312 202.828125 19.296875 202.867188 19.289062 C 203.507812 19.089844 204.09375 18.769531 204.59375 18.371094 C 205.097656 17.96875 205.519531 17.476562 205.84375 16.941406 L 205.902344 16.84375 L 205.933594 16.796875 L 205.949219 16.769531 L 205.964844 16.746094 L 206.070312 16.542969 L 206.167969 16.335938 C 206.167969 16.335938 206.183594 16.304688 206.191406 16.285156 L 206.21875 16.238281 L 206.257812 16.132812 C 206.363281 15.851562 206.453125 15.566406 206.507812 15.277344 L 206.535156 15.171875 L 206.535156 15.121094 C 206.535156 15.121094 206.550781 15.089844 206.550781 15.066406 C 206.558594 14.992188 206.574219 14.925781 206.582031 14.851562 L 206.605469 14.640625 C 206.605469 14.640625 206.605469 14.566406 206.605469 14.53125 L 206.605469 14.320312 L 206.621094 14.210938 L 206.621094 13.851562 C 206.621094 13.851562 206.621094 13.820312 206.613281 13.800781 L 206.597656 13.597656 C 206.597656 13.597656 206.597656 13.53125 206.589844 13.5 L 206.574219 13.402344 L 206.558594 13.300781 L 206.542969 13.203125 L 206.523438 13.105469 L 206.523438 13.054688 C 206.523438 13.054688 206.507812 13.023438 206.507812 13.007812 L 206.484375 12.902344 C 206.484375 12.902344 206.46875 12.828125 206.460938 12.792969 C 206.429688 12.65625 206.386719 12.507812 206.347656 12.367188 L 206.3125 12.261719 L 206.296875 12.210938 L 206.28125 12.164062 L 206.242188 12.054688 L 206.199219 11.949219 C 205.988281 11.382812 205.699219 10.824219 205.316406 10.308594 C 204.945312 9.792969 204.480469 9.308594 203.953125 8.898438 C 203.425781 8.488281 202.828125 8.144531 202.1875 7.898438 C 201.546875 7.652344 200.855469 7.496094 200.160156 7.449219 C 199.808594 7.421875 199.460938 7.429688 199.113281 7.457031 C 198.933594 7.472656 198.765625 7.488281 198.59375 7.523438 L 198.527344 7.523438 L 198.464844 7.546875 L 198.335938 7.570312 C 198.292969 7.570312 198.246094 7.585938 198.203125 7.59375 L 198.074219 7.621094 C 197.378906 7.777344 196.703125 8.011719 196.078125 8.324219 C 195.761719 8.480469 195.464844 8.652344 195.171875 8.84375 C 194.878906 9.03125 194.605469 9.234375 194.34375 9.449219 C 193.816406 9.875 193.355469 10.359375 192.949219 10.859375 C 192.542969 11.359375 192.210938 11.890625 191.945312 12.417969 C 191.667969 12.941406 191.457031 13.472656 191.304688 13.976562 C 191.222656 14.230469 191.15625 14.476562 191.109375 14.710938 C 191.050781 14.949219 191.011719 15.1875 190.980469 15.410156 C 190.914062 15.859375 190.882812 16.269531 190.875 16.632812 C 190.875 16.992188 190.875 17.304688 190.898438 17.558594 C 190.898438 17.589844 190.898438 17.625 190.898438 17.648438 L 190.898438 17.738281 C 190.914062 17.796875 190.914062 17.84375 190.921875 17.894531 L 190.9375 18.023438 C 190.9375 18.066406 190.945312 18.105469 190.953125 18.140625 L 190.980469 18.34375 L 190.929688 18.148438 C 190.929688 18.148438 190.914062 18.082031 190.90625 18.042969 L 190.875 17.910156 C 190.867188 17.859375 190.847656 17.8125 190.839844 17.753906 L 190.824219 17.664062 C 190.824219 17.664062 190.816406 17.605469 190.808594 17.574219 C 190.761719 17.320312 190.71875 17.007812 190.6875 16.648438 C 190.65625 16.277344 190.644531 15.859375 190.664062 15.394531 C 190.671875 15.164062 190.695312 14.917969 190.726562 14.664062 L 190.726562 14.613281 C 190.726562 14.613281 190.695312 14.6875 190.679688 14.722656 L 190.65625 14.777344 L 190.621094 14.835938 L 190.589844 14.894531 L 190.574219 14.925781 L 190.558594 14.949219 C 190.558594 14.949219 190.515625 15.023438 190.492188 15.066406 L 190.417969 15.179688 C 190.417969 15.179688 190.363281 15.253906 190.339844 15.292969 C 190.226562 15.449219 190.085938 15.605469 189.933594 15.746094 C 189.777344 15.894531 189.601562 16.023438 189.398438 16.148438 C 189.203125 16.269531 188.984375 16.367188 188.757812 16.449219 C 188.53125 16.53125 188.277344 16.582031 188.027344 16.613281 C 187.960938 16.613281 187.898438 16.632812 187.839844 16.632812 L 187.742188 16.632812 C 187.742188 16.632812 187.679688 16.632812 187.644531 16.632812 L 187.449219 16.632812 C 187.449219 16.632812 187.386719 16.621094 187.355469 16.613281 L 187.257812 16.613281 C 187.257812 16.613281 187.191406 16.589844 187.160156 16.589844 C 187.125 16.589844 187.09375 16.582031 187.0625 16.574219 C 186.996094 16.558594 186.933594 16.550781 186.867188 16.523438 C 186.800781 16.507812 186.738281 16.484375 186.671875 16.46875 C 186.640625 16.460938 186.609375 16.441406 186.574219 16.433594 C 186.542969 16.425781 186.511719 16.410156 186.484375 16.394531 L 186.398438 16.351562 L 186.308594 16.304688 C 186.308594 16.304688 186.273438 16.285156 186.257812 16.277344 L 186.21875 16.253906 C 186.21875 16.253906 186.160156 16.222656 186.128906 16.203125 C 186.074219 16.171875 186.015625 16.132812 185.957031 16.089844 C 185.902344 16.050781 185.855469 16.007812 185.796875 15.96875 C 185.773438 15.941406 185.75 15.925781 185.722656 15.902344 C 185.699219 15.875 185.675781 15.859375 185.652344 15.835938 L 185.578125 15.761719 C 185.578125 15.761719 185.527344 15.710938 185.511719 15.6875 L 185.480469 15.65625 L 185.449219 15.613281 L 185.382812 15.539062 L 185.328125 15.457031 C 185.328125 15.457031 185.308594 15.433594 185.292969 15.417969 L 185.269531 15.375 C 185.269531 15.375 185.230469 15.320312 185.214844 15.292969 L 185.164062 15.210938 C 185.164062 15.210938 185.148438 15.1875 185.140625 15.171875 L 185.117188 15.128906 L 185.066406 15.046875 L 185.027344 14.964844 L 185.003906 14.925781 L 184.984375 14.882812 L 184.953125 14.792969 C 184.953125 14.792969 184.929688 14.738281 184.921875 14.703125 C 184.898438 14.648438 184.878906 14.589844 184.863281 14.53125 C 184.855469 14.5 184.847656 14.476562 184.839844 14.441406 C 184.839844 14.410156 184.824219 14.382812 184.816406 14.351562 C 184.792969 14.238281 184.773438 14.121094 184.757812 14.007812 C 184.734375 13.777344 184.742188 13.539062 184.78125 13.292969 C 184.800781 13.171875 184.832031 13.039062 184.871094 12.917969 Z M 184.871094 12.882812 " fill-opacity="1" fill-rule="nonzero"/><path fill="#000000" d="M 231.664062 8.800781 C 231 8.621094 230.320312 8.40625 229.652344 8.167969 C 228.980469 7.933594 228.316406 7.660156 227.652344 7.382812 C 226.984375 7.105469 226.335938 6.816406 225.695312 6.546875 C 225.378906 6.40625 225.0625 6.277344 224.746094 6.144531 L 224.511719 6.046875 C 224.429688 6.011719 224.359375 5.980469 224.285156 5.957031 C 224.132812 5.890625 223.984375 5.839844 223.832031 5.785156 C 223.789062 5.765625 223.757812 5.757812 223.71875 5.742188 L 223.605469 5.703125 L 223.492188 5.660156 L 223.433594 5.644531 L 223.378906 5.628906 C 223.222656 5.578125 223.078125 5.527344 222.921875 5.480469 C 222.851562 5.457031 222.769531 5.429688 222.695312 5.414062 L 222.46875 5.347656 C 222.46875 5.347656 222.394531 5.324219 222.355469 5.316406 L 222.242188 5.292969 L 222.015625 5.234375 C 221.40625 5.09375 220.804688 4.988281 220.214844 4.921875 L 220.101562 4.921875 L 219.988281 4.898438 C 219.914062 4.898438 219.839844 4.882812 219.769531 4.882812 L 219.550781 4.863281 C 219.476562 4.863281 219.402344 4.855469 219.332031 4.847656 C 219.183594 4.847656 219.039062 4.832031 218.902344 4.832031 L 218.691406 4.832031 C 218.617188 4.832031 218.550781 4.832031 218.480469 4.832031 C 218.339844 4.832031 218.203125 4.839844 218.066406 4.847656 C 217.992188 4.847656 217.925781 4.855469 217.863281 4.863281 C 217.796875 4.863281 217.722656 4.875 217.660156 4.882812 L 217.457031 4.90625 L 217.359375 4.90625 L 217.261719 4.929688 L 217.066406 4.957031 C 217.066406 4.957031 217.003906 4.964844 216.96875 4.972656 L 216.871094 4.988281 C 216.355469 5.078125 215.851562 5.191406 215.390625 5.347656 C 214.917969 5.496094 214.480469 5.675781 214.066406 5.867188 C 213.246094 6.25 212.542969 6.710938 211.976562 7.167969 C 211.933594 7.195312 211.902344 7.226562 211.871094 7.257812 L 211.765625 7.339844 C 211.765625 7.339844 211.699219 7.398438 211.667969 7.421875 L 211.472656 7.585938 L 211.421875 7.628906 L 211.375 7.667969 L 211.195312 7.832031 C 211.195312 7.832031 211.140625 7.890625 211.113281 7.914062 L 211.035156 7.996094 C 210.976562 8.054688 210.929688 8.105469 210.878906 8.152344 C 210.78125 8.257812 210.683594 8.359375 210.605469 8.457031 L 210.484375 8.605469 C 210.441406 8.652344 210.410156 8.703125 210.367188 8.742188 L 210.261719 8.875 C 210.230469 8.914062 210.199219 8.957031 210.167969 8.996094 L 210.078125 9.113281 L 210.035156 9.167969 L 209.996094 9.226562 L 209.859375 9.414062 C 209.816406 9.472656 209.785156 9.523438 209.753906 9.570312 L 209.679688 9.6875 L 209.621094 9.777344 L 209.671875 9.679688 L 209.726562 9.554688 C 209.753906 9.507812 209.777344 9.449219 209.808594 9.390625 L 209.914062 9.179688 L 209.949219 9.121094 L 209.980469 9.0625 L 210.054688 8.933594 C 210.078125 8.890625 210.101562 8.84375 210.132812 8.792969 L 210.222656 8.644531 C 210.253906 8.597656 210.289062 8.539062 210.320312 8.488281 L 210.425781 8.324219 C 210.5 8.210938 210.578125 8.09375 210.667969 7.980469 C 210.710938 7.921875 210.757812 7.859375 210.808594 7.800781 L 210.878906 7.710938 C 210.878906 7.710938 210.929688 7.644531 210.953125 7.613281 L 211.113281 7.414062 L 211.15625 7.367188 L 211.195312 7.316406 L 211.375 7.121094 C 211.375 7.121094 211.441406 7.054688 211.472656 7.023438 L 211.570312 6.921875 C 211.570312 6.921875 211.632812 6.859375 211.667969 6.824219 L 211.878906 6.621094 C 211.949219 6.554688 212.023438 6.480469 212.105469 6.414062 C 212.121094 6.398438 212.144531 6.382812 212.160156 6.367188 L 212.21875 6.316406 L 212.339844 6.21875 C 212.421875 6.144531 212.5 6.078125 212.589844 6.011719 C 212.933594 5.742188 213.3125 5.480469 213.734375 5.226562 C 214.15625 4.980469 214.609375 4.742188 215.105469 4.539062 C 215.601562 4.332031 216.125 4.152344 216.6875 4.011719 L 216.792969 3.988281 C 216.792969 3.988281 216.863281 3.972656 216.898438 3.964844 L 217.109375 3.914062 L 217.214844 3.890625 L 217.320312 3.871094 L 217.539062 3.832031 C 217.609375 3.816406 217.683594 3.808594 217.757812 3.800781 C 217.828125 3.789062 217.902344 3.773438 217.984375 3.765625 C 218.136719 3.75 218.285156 3.734375 218.4375 3.71875 C 218.511719 3.71875 218.59375 3.699219 218.671875 3.699219 L 218.910156 3.699219 C 219.0625 3.675781 219.214844 3.675781 219.378906 3.675781 C 219.460938 3.675781 219.53125 3.675781 219.613281 3.675781 L 219.847656 3.675781 C 219.929688 3.675781 220.011719 3.675781 220.09375 3.683594 L 220.335938 3.683594 C 220.984375 3.734375 221.640625 3.808594 222.304688 3.9375 L 222.558594 3.988281 L 222.679688 4.011719 C 222.71875 4.019531 222.761719 4.027344 222.800781 4.035156 L 223.050781 4.09375 C 223.132812 4.109375 223.222656 4.136719 223.304688 4.160156 C 223.472656 4.199219 223.636719 4.25 223.808594 4.300781 L 223.871094 4.316406 L 223.9375 4.332031 L 224.058594 4.375 L 224.179688 4.414062 C 224.21875 4.429688 224.261719 4.4375 224.300781 4.457031 C 224.472656 4.511719 224.632812 4.570312 224.804688 4.636719 C 224.886719 4.667969 224.972656 4.699219 225.054688 4.726562 L 225.300781 4.824219 C 225.625 4.957031 225.949219 5.085938 226.273438 5.21875 C 226.921875 5.488281 227.570312 5.765625 228.226562 6.039062 C 228.882812 6.308594 229.53125 6.578125 230.164062 6.816406 C 230.804688 7.0625 231.4375 7.265625 232.070312 7.464844 C 232.703125 7.660156 233.328125 7.832031 233.945312 7.980469 C 234.558594 8.128906 235.167969 8.25 235.761719 8.351562 C 236.351562 8.449219 236.945312 8.515625 237.511719 8.5625 C 238.078125 8.605469 238.640625 8.628906 239.175781 8.621094 L 239.570312 8.621094 L 239.667969 8.605469 L 239.765625 8.605469 L 239.960938 8.585938 C 240.027344 8.585938 240.089844 8.578125 240.15625 8.570312 C 240.21875 8.570312 240.285156 8.570312 240.351562 8.554688 C 240.480469 8.546875 240.601562 8.53125 240.722656 8.523438 C 241.21875 8.472656 241.695312 8.398438 242.144531 8.308594 C 242.597656 8.21875 243.019531 8.113281 243.414062 7.996094 C 243.8125 7.882812 244.195312 7.769531 244.535156 7.636719 C 245.222656 7.382812 245.800781 7.113281 246.246094 6.847656 C 246.691406 6.585938 247.015625 6.332031 247.226562 6.152344 L 247.300781 6.085938 C 247.300781 6.085938 247.339844 6.046875 247.367188 6.03125 C 247.40625 5.996094 247.4375 5.964844 247.460938 5.9375 L 247.535156 5.867188 L 247.46875 5.957031 C 247.46875 5.957031 247.421875 6.019531 247.390625 6.0625 C 247.375 6.085938 247.355469 6.101562 247.332031 6.128906 L 247.269531 6.203125 C 247.082031 6.414062 246.796875 6.71875 246.375 7.046875 C 245.953125 7.375 245.394531 7.734375 244.714844 8.070312 C 244.371094 8.242188 244 8.40625 243.601562 8.570312 C 243.203125 8.734375 242.773438 8.890625 242.3125 9.03125 C 241.851562 9.167969 241.363281 9.292969 240.84375 9.390625 C 240.714844 9.414062 240.585938 9.441406 240.457031 9.464844 C 240.390625 9.472656 240.324219 9.488281 240.253906 9.496094 C 240.1875 9.507812 240.113281 9.523438 240.050781 9.53125 L 239.847656 9.554688 L 239.742188 9.570312 L 239.636719 9.570312 L 239.425781 9.605469 L 239.214844 9.621094 C 238.648438 9.671875 238.0625 9.695312 237.457031 9.6875 C 236.847656 9.6875 236.230469 9.644531 235.597656 9.578125 C 234.964844 9.515625 234.316406 9.414062 233.660156 9.292969 C 233.003906 9.167969 232.347656 9.003906 231.679688 8.824219 Z M 231.664062 8.800781 " fill-opacity="1" fill-rule="nonzero"/><path fill="#000000" d="M 210.554688 17.074219 L 210.523438 17 L 210.457031 16.859375 C 210.296875 16.484375 210.167969 16.089844 210.078125 15.703125 L 210.042969 15.558594 L 210.027344 15.484375 C 210.027344 15.484375 210.019531 15.433594 210.011719 15.410156 C 209.996094 15.3125 209.980469 15.210938 209.964844 15.113281 L 209.921875 14.820312 C 209.921875 14.769531 209.914062 14.722656 209.90625 14.671875 L 209.90625 14.523438 L 209.890625 14.449219 L 209.890625 13.738281 C 209.890625 13.738281 209.890625 13.6875 209.890625 13.664062 L 209.914062 13.382812 C 209.914062 13.335938 209.921875 13.292969 209.929688 13.246094 L 209.949219 13.105469 L 209.964844 12.964844 L 209.988281 12.828125 L 210.011719 12.6875 L 210.027344 12.613281 C 210.027344 12.613281 210.035156 12.5625 210.042969 12.546875 L 210.078125 12.410156 C 210.085938 12.359375 210.101562 12.316406 210.109375 12.269531 C 210.160156 12.089844 210.207031 11.910156 210.265625 11.71875 L 210.3125 11.582031 L 210.359375 11.449219 L 210.410156 11.308594 L 210.464844 11.171875 C 210.757812 10.449219 211.15625 9.734375 211.667969 9.097656 C 212.167969 8.449219 212.785156 7.867188 213.476562 7.382812 C 214.164062 6.898438 214.933594 6.511719 215.753906 6.25 C 216.566406 5.988281 217.425781 5.855469 218.277344 5.867188 C 218.699219 5.867188 219.128906 5.898438 219.542969 5.972656 C 219.753906 6.003906 219.953125 6.046875 220.15625 6.09375 L 220.230469 6.113281 L 220.304688 6.128906 L 220.449219 6.167969 C 220.5 6.183594 220.546875 6.195312 220.59375 6.210938 L 220.742188 6.25 C 221.527344 6.488281 222.273438 6.824219 222.945312 7.234375 C 223.289062 7.441406 223.613281 7.660156 223.921875 7.898438 C 224.230469 8.136719 224.511719 8.390625 224.789062 8.644531 C 225.332031 9.167969 225.792969 9.734375 226.175781 10.324219 C 226.5625 10.90625 226.863281 11.507812 227.097656 12.097656 C 227.117188 12.128906 227.125 12.15625 227.132812 12.1875 C 227.253906 12.492188 227.359375 12.808594 227.449219 13.128906 C 227.488281 13.277344 227.527344 13.433594 227.5625 13.589844 C 227.59375 13.738281 227.617188 13.894531 227.675781 14.03125 C 227.714844 14.121094 227.757812 14.203125 227.804688 14.292969 L 227.828125 14.335938 L 227.84375 14.359375 L 227.863281 14.382812 L 227.917969 14.476562 C 227.917969 14.476562 227.960938 14.53125 227.984375 14.566406 L 228.015625 14.613281 L 228.046875 14.664062 L 228.082031 14.710938 L 228.097656 14.738281 L 228.113281 14.761719 L 228.195312 14.859375 L 228.273438 14.949219 C 228.273438 14.949219 228.332031 15.007812 228.363281 15.039062 C 228.617188 15.285156 228.933594 15.507812 229.296875 15.65625 C 229.476562 15.730469 229.671875 15.792969 229.871094 15.828125 C 230.074219 15.867188 230.277344 15.886719 230.480469 15.875 C 230.53125 15.875 230.585938 15.875 230.636719 15.875 L 230.707031 15.875 C 230.707031 15.875 230.757812 15.859375 230.78125 15.859375 L 230.855469 15.859375 L 230.925781 15.835938 C 230.925781 15.835938 230.976562 15.828125 231 15.820312 L 231.074219 15.804688 C 231.074219 15.804688 231.121094 15.785156 231.144531 15.785156 C 231.171875 15.785156 231.195312 15.769531 231.21875 15.761719 C 231.269531 15.746094 231.308594 15.730469 231.355469 15.710938 C 231.40625 15.695312 231.445312 15.671875 231.496094 15.65625 C 231.519531 15.648438 231.535156 15.632812 231.558594 15.621094 C 231.585938 15.613281 231.601562 15.597656 231.625 15.589844 L 231.6875 15.558594 L 231.746094 15.515625 L 231.777344 15.5 L 231.8125 15.476562 C 231.8125 15.476562 231.851562 15.449219 231.867188 15.433594 C 231.910156 15.402344 231.941406 15.375 231.980469 15.34375 C 232.015625 15.3125 232.054688 15.277344 232.085938 15.246094 C 232.101562 15.230469 232.121094 15.210938 232.136719 15.195312 C 232.152344 15.179688 232.167969 15.164062 232.183594 15.148438 L 232.234375 15.097656 L 232.273438 15.039062 L 232.296875 15.015625 L 232.3125 14.992188 L 232.355469 14.933594 L 232.410156 14.851562 L 232.425781 14.820312 L 232.460938 14.761719 L 232.492188 14.703125 L 232.523438 14.640625 L 232.550781 14.582031 L 232.574219 14.523438 L 232.589844 14.492188 L 232.589844 14.457031 L 232.621094 14.402344 C 232.621094 14.402344 232.636719 14.359375 232.636719 14.34375 C 232.65625 14.300781 232.664062 14.261719 232.671875 14.21875 C 232.671875 14.203125 232.679688 14.179688 232.6875 14.164062 C 232.6875 14.148438 232.695312 14.121094 232.703125 14.105469 C 232.71875 14.023438 232.726562 13.949219 232.734375 13.875 C 232.75 13.71875 232.75 13.566406 232.734375 13.390625 C 232.726562 13.308594 232.710938 13.238281 232.695312 13.15625 C 232.671875 13.074219 232.644531 13 232.613281 12.917969 C 232.582031 12.84375 232.539062 12.761719 232.492188 12.695312 C 232.445312 12.621094 232.394531 12.554688 232.339844 12.480469 C 232.226562 12.351562 232.078125 12.238281 231.917969 12.144531 C 231.753906 12.054688 231.574219 11.992188 231.398438 11.957031 C 231.308594 11.941406 231.210938 11.933594 231.113281 11.933594 C 231.105469 11.933594 231.089844 11.933594 231.082031 11.933594 L 231.046875 11.933594 C 231.046875 11.933594 231 11.933594 230.976562 11.933594 C 230.953125 11.933594 230.925781 11.933594 230.910156 11.933594 L 230.847656 11.933594 C 230.667969 11.972656 230.496094 12.046875 230.34375 12.15625 C 230.1875 12.261719 230.066406 12.390625 229.96875 12.546875 C 229.871094 12.703125 229.808594 12.875 229.777344 13.046875 C 229.742188 13.21875 229.742188 13.402344 229.777344 13.554688 C 229.808594 13.710938 229.871094 13.859375 229.953125 13.984375 C 230.035156 14.105469 230.140625 14.203125 230.238281 14.285156 C 230.34375 14.359375 230.449219 14.417969 230.546875 14.449219 C 230.644531 14.484375 230.734375 14.507812 230.804688 14.515625 C 230.847656 14.515625 230.878906 14.515625 230.902344 14.523438 C 230.933594 14.523438 230.960938 14.523438 230.976562 14.523438 C 230.976562 14.523438 230.933594 14.539062 230.902344 14.546875 C 230.871094 14.546875 230.839844 14.546875 230.796875 14.558594 C 230.722656 14.558594 230.628906 14.558594 230.511719 14.539062 C 230.398438 14.523438 230.277344 14.484375 230.148438 14.417969 C 230.019531 14.351562 229.882812 14.261719 229.765625 14.128906 C 229.644531 14 229.539062 13.835938 229.46875 13.648438 C 229.460938 13.621094 229.449219 13.597656 229.441406 13.574219 C 229.441406 13.546875 229.425781 13.523438 229.417969 13.5 C 229.417969 13.472656 229.402344 13.449219 229.402344 13.417969 C 229.402344 13.390625 229.394531 13.367188 229.386719 13.335938 C 229.371094 13.226562 229.363281 13.121094 229.371094 13.007812 C 229.371094 12.777344 229.425781 12.539062 229.523438 12.316406 C 229.621094 12.089844 229.777344 11.875 229.96875 11.695312 C 230.164062 11.515625 230.398438 11.375 230.667969 11.285156 C 230.683594 11.285156 230.699219 11.277344 230.714844 11.269531 L 230.765625 11.253906 C 230.765625 11.253906 230.828125 11.234375 230.871094 11.226562 C 230.902344 11.226562 230.933594 11.210938 230.96875 11.210938 L 231.015625 11.210938 C 231.015625 11.210938 231.046875 11.195312 231.066406 11.195312 C 231.203125 11.179688 231.339844 11.171875 231.480469 11.179688 C 231.753906 11.195312 232.03125 11.261719 232.28125 11.367188 C 232.53125 11.480469 232.769531 11.636719 232.972656 11.828125 C 233.066406 11.925781 233.164062 12.023438 233.246094 12.136719 C 233.328125 12.246094 233.402344 12.367188 233.464844 12.480469 C 233.53125 12.605469 233.578125 12.726562 233.621094 12.851562 C 233.660156 12.972656 233.691406 13.105469 233.707031 13.226562 C 233.75 13.472656 233.75 13.710938 233.734375 13.941406 C 233.726562 14.054688 233.699219 14.171875 233.675781 14.285156 C 233.675781 14.320312 233.660156 14.34375 233.652344 14.375 C 233.652344 14.410156 233.636719 14.433594 233.628906 14.464844 C 233.613281 14.523438 233.59375 14.582031 233.570312 14.640625 C 233.5625 14.671875 233.546875 14.695312 233.539062 14.730469 L 233.507812 14.820312 L 233.488281 14.859375 L 233.464844 14.902344 L 233.425781 14.984375 L 233.375 15.066406 L 233.351562 15.105469 C 233.351562 15.105469 233.335938 15.128906 233.328125 15.148438 L 233.277344 15.230469 C 233.277344 15.230469 233.246094 15.285156 233.222656 15.3125 L 233.199219 15.351562 C 233.199219 15.351562 233.179688 15.375 233.164062 15.394531 L 233.109375 15.476562 L 233.042969 15.550781 L 233.011719 15.589844 L 232.980469 15.621094 C 232.980469 15.621094 232.9375 15.671875 232.914062 15.695312 L 232.839844 15.769531 C 232.839844 15.769531 232.792969 15.820312 232.769531 15.835938 C 232.742188 15.859375 232.71875 15.875 232.695312 15.902344 C 232.644531 15.941406 232.589844 15.984375 232.53125 16.023438 C 232.476562 16.066406 232.417969 16.097656 232.363281 16.140625 C 232.328125 16.15625 232.304688 16.171875 232.273438 16.1875 L 232.234375 16.214844 C 232.234375 16.214844 232.199219 16.230469 232.183594 16.238281 L 232.09375 16.285156 L 232.003906 16.328125 C 232.003906 16.328125 231.941406 16.351562 231.917969 16.367188 C 231.882812 16.378906 231.851562 16.394531 231.820312 16.402344 C 231.753906 16.425781 231.6875 16.441406 231.625 16.460938 C 231.558594 16.476562 231.496094 16.492188 231.429688 16.507812 C 231.398438 16.507812 231.363281 16.515625 231.332031 16.523438 C 231.300781 16.523438 231.269531 16.53125 231.234375 16.542969 L 231.136719 16.542969 C 231.136719 16.542969 231.074219 16.558594 231.039062 16.558594 L 230.847656 16.558594 C 230.847656 16.558594 230.78125 16.558594 230.75 16.558594 L 230.652344 16.558594 C 230.585938 16.558594 230.523438 16.542969 230.464844 16.542969 C 230.214844 16.515625 229.96875 16.460938 229.734375 16.378906 C 229.507812 16.296875 229.289062 16.195312 229.09375 16.074219 C 228.898438 15.949219 228.722656 15.820312 228.558594 15.671875 C 228.40625 15.523438 228.265625 15.375 228.152344 15.222656 C 228.128906 15.179688 228.097656 15.148438 228.074219 15.105469 L 228 14.992188 C 228 14.992188 227.949219 14.917969 227.933594 14.875 L 227.917969 14.851562 L 227.902344 14.820312 L 227.871094 14.761719 L 227.835938 14.703125 L 227.8125 14.648438 C 227.8125 14.648438 227.78125 14.574219 227.765625 14.539062 L 227.765625 14.589844 C 227.789062 14.84375 227.8125 15.089844 227.820312 15.320312 C 227.84375 15.785156 227.820312 16.203125 227.796875 16.574219 C 227.765625 16.941406 227.722656 17.253906 227.675781 17.5 C 227.675781 17.53125 227.667969 17.566406 227.660156 17.589844 L 227.644531 17.679688 C 227.632812 17.738281 227.617188 17.789062 227.609375 17.835938 L 227.578125 17.96875 C 227.578125 17.96875 227.5625 18.042969 227.554688 18.074219 L 227.503906 18.269531 L 227.527344 18.066406 C 227.527344 18.066406 227.539062 17.992188 227.546875 17.953125 L 227.5625 17.820312 C 227.5625 17.769531 227.570312 17.722656 227.578125 17.664062 L 227.578125 17.574219 C 227.578125 17.574219 227.59375 17.515625 227.59375 17.484375 C 227.609375 17.230469 227.625 16.917969 227.617188 16.558594 C 227.617188 16.195312 227.578125 15.785156 227.511719 15.335938 C 227.480469 15.113281 227.441406 14.875 227.382812 14.640625 C 227.328125 14.402344 227.261719 14.148438 227.1875 13.902344 C 227.035156 13.390625 226.824219 12.867188 226.546875 12.34375 C 226.273438 11.816406 225.941406 11.285156 225.542969 10.785156 C 225.144531 10.285156 224.675781 9.800781 224.148438 9.375 C 223.886719 9.160156 223.605469 8.957031 223.320312 8.769531 C 223.027344 8.578125 222.726562 8.40625 222.410156 8.25 C 221.78125 7.941406 221.105469 7.703125 220.417969 7.546875 L 220.289062 7.523438 C 220.246094 7.511719 220.199219 7.503906 220.15625 7.496094 L 220.027344 7.472656 L 219.964844 7.472656 L 219.898438 7.449219 C 219.726562 7.414062 219.550781 7.398438 219.378906 7.382812 C 219.03125 7.347656 218.679688 7.347656 218.332031 7.375 C 217.636719 7.421875 216.953125 7.570312 216.304688 7.824219 C 215.664062 8.070312 215.066406 8.414062 214.539062 8.824219 C 214.011719 9.234375 213.546875 9.71875 213.175781 10.234375 C 212.800781 10.753906 212.511719 11.308594 212.292969 11.875 L 212.25 11.980469 L 212.210938 12.089844 L 212.195312 12.136719 L 212.175781 12.1875 L 212.144531 12.292969 C 212.105469 12.433594 212.0625 12.582031 212.03125 12.71875 C 212.023438 12.753906 212.015625 12.792969 212.007812 12.828125 L 211.984375 12.933594 C 211.984375 12.933594 211.976562 12.964844 211.976562 12.984375 L 211.976562 13.03125 L 211.949219 13.128906 L 211.933594 13.226562 L 211.917969 13.328125 L 211.902344 13.425781 C 211.902344 13.425781 211.894531 13.492188 211.894531 13.523438 L 211.878906 13.730469 C 211.878906 13.730469 211.878906 13.761719 211.878906 13.777344 L 211.878906 14.449219 C 211.878906 14.449219 211.886719 14.523438 211.894531 14.558594 L 211.917969 14.769531 C 211.925781 14.84375 211.941406 14.910156 211.949219 14.984375 C 211.949219 15 211.949219 15.015625 211.957031 15.039062 L 211.957031 15.089844 L 211.992188 15.195312 C 212.054688 15.484375 212.136719 15.761719 212.242188 16.050781 L 212.28125 16.15625 L 212.308594 16.203125 C 212.308594 16.203125 212.324219 16.238281 212.332031 16.253906 L 212.429688 16.460938 L 212.535156 16.664062 L 212.550781 16.6875 L 212.566406 16.714844 L 212.597656 16.761719 L 212.65625 16.859375 C 212.980469 17.394531 213.394531 17.878906 213.90625 18.289062 C 214.40625 18.6875 215 19.007812 215.632812 19.207031 C 215.671875 19.222656 215.714844 19.230469 215.753906 19.238281 L 215.875 19.269531 L 215.933594 19.289062 C 215.933594 19.289062 215.972656 19.296875 215.988281 19.304688 L 216.109375 19.328125 C 216.109375 19.328125 216.191406 19.34375 216.234375 19.351562 L 216.355469 19.378906 L 216.476562 19.394531 L 216.566406 19.394531 L 216.597656 19.410156 C 216.921875 19.433594 217.246094 19.425781 217.570312 19.378906 C 217.894531 19.328125 218.210938 19.238281 218.519531 19.117188 L 218.550781 19.117188 L 218.574219 19.089844 L 218.632812 19.066406 C 218.632812 19.066406 218.707031 19.035156 218.746094 19.015625 L 218.859375 18.960938 L 218.917969 18.933594 C 218.917969 18.933594 218.949219 18.917969 218.972656 18.902344 L 219.078125 18.84375 C 219.078125 18.84375 219.113281 18.820312 219.136719 18.8125 L 219.183594 18.78125 L 219.234375 18.746094 C 219.234375 18.746094 219.265625 18.722656 219.28125 18.714844 L 219.386719 18.640625 C 219.65625 18.453125 219.90625 18.222656 220.125 17.96875 C 220.34375 17.722656 220.539062 17.441406 220.691406 17.148438 C 220.847656 16.851562 220.96875 16.550781 221.058594 16.230469 L 221.074219 16.171875 C 221.074219 16.171875 221.082031 16.132812 221.089844 16.113281 L 221.113281 16 C 221.113281 16 221.128906 15.917969 221.140625 15.886719 L 221.140625 15.828125 C 221.140625 15.828125 221.15625 15.785156 221.15625 15.769531 L 221.171875 15.65625 L 221.171875 15.539062 L 221.1875 15.484375 L 221.1875 15.425781 C 221.1875 15.425781 221.1875 15.34375 221.1875 15.3125 C 221.1875 14.679688 221.015625 14.066406 220.71875 13.539062 C 220.644531 13.410156 220.5625 13.285156 220.472656 13.164062 L 220.441406 13.121094 L 220.410156 13.074219 L 220.335938 12.992188 C 220.335938 12.992188 220.289062 12.933594 220.261719 12.910156 C 220.238281 12.882812 220.214844 12.851562 220.191406 12.828125 C 219.988281 12.613281 219.761719 12.433594 219.523438 12.285156 C 219.289062 12.136719 219.039062 12.015625 218.785156 11.925781 C 218.535156 11.835938 218.285156 11.769531 218.03125 11.753906 C 217.78125 11.726562 217.539062 11.734375 217.3125 11.777344 C 217.085938 11.808594 216.863281 11.875 216.664062 11.957031 C 216.460938 12.039062 216.28125 12.136719 216.109375 12.253906 C 215.949219 12.359375 215.800781 12.480469 215.671875 12.605469 C 215.542969 12.726562 215.4375 12.851562 215.347656 12.972656 C 215.257812 13.097656 215.1875 13.210938 215.121094 13.328125 L 215.082031 13.410156 L 215.054688 13.449219 C 215.054688 13.449219 215.046875 13.472656 215.039062 13.492188 L 215.007812 13.566406 L 214.976562 13.628906 C 214.960938 13.671875 214.941406 13.71875 214.925781 13.753906 L 214.886719 13.859375 C 214.886719 13.859375 214.878906 13.894531 214.871094 13.902344 L 214.871094 13.941406 L 214.835938 14 L 214.820312 14.046875 L 214.820312 14 L 214.835938 13.933594 L 214.835938 13.894531 C 214.835938 13.894531 214.855469 13.859375 214.855469 13.84375 L 214.878906 13.738281 C 214.878906 13.738281 214.902344 13.65625 214.917969 13.605469 L 214.917969 13.574219 L 214.941406 13.53125 L 214.96875 13.449219 C 214.96875 13.449219 214.976562 13.425781 214.984375 13.410156 L 215 13.367188 L 215.03125 13.277344 C 215.082031 13.164062 215.144531 13.03125 215.226562 12.890625 C 215.308594 12.753906 215.40625 12.613281 215.527344 12.464844 C 215.648438 12.328125 215.785156 12.179688 215.949219 12.039062 C 216.109375 11.898438 216.296875 11.777344 216.507812 11.664062 C 216.71875 11.546875 216.953125 11.457031 217.214844 11.390625 C 217.464844 11.328125 217.75 11.285156 218.03125 11.285156 C 218.050781 11.285156 218.066406 11.285156 218.089844 11.285156 L 218.25 11.285156 L 218.367188 11.300781 L 218.421875 11.300781 C 218.421875 11.300781 218.460938 11.308594 218.480469 11.308594 L 218.59375 11.328125 C 218.59375 11.328125 218.664062 11.34375 218.707031 11.351562 L 218.933594 11.398438 C 219.234375 11.472656 219.535156 11.582031 219.824219 11.726562 C 220.117188 11.875 220.402344 12.0625 220.667969 12.292969 C 220.699219 12.316406 220.734375 12.351562 220.765625 12.382812 C 220.796875 12.417969 220.832031 12.441406 220.863281 12.472656 L 220.960938 12.574219 L 221.058594 12.671875 C 221.179688 12.800781 221.292969 12.949219 221.398438 13.097656 C 221.609375 13.402344 221.789062 13.738281 221.917969 14.105469 C 222.054688 14.464844 222.136719 14.859375 222.175781 15.261719 C 222.175781 15.3125 222.175781 15.359375 222.183594 15.417969 L 222.183594 15.875 C 222.183594 15.875 222.183594 15.925781 222.183594 15.949219 L 222.183594 16.023438 C 222.175781 16.074219 222.167969 16.132812 222.160156 16.179688 L 222.136719 16.335938 C 222.136719 16.335938 222.136719 16.386719 222.128906 16.410156 L 222.113281 16.484375 C 222.039062 16.886719 221.917969 17.289062 221.746094 17.671875 C 221.585938 18.058594 221.367188 18.425781 221.105469 18.78125 C 220.847656 19.125 220.554688 19.445312 220.214844 19.722656 L 220.085938 19.828125 C 220.085938 19.828125 220.042969 19.863281 220.019531 19.878906 L 219.953125 19.925781 L 219.890625 19.976562 C 219.890625 19.976562 219.847656 20.007812 219.824219 20.027344 L 219.6875 20.117188 C 219.6875 20.117188 219.640625 20.148438 219.621094 20.164062 L 219.550781 20.207031 L 219.410156 20.289062 C 219.363281 20.3125 219.3125 20.335938 219.265625 20.371094 L 219.191406 20.410156 C 219.191406 20.410156 219.167969 20.425781 219.152344 20.425781 L 219.113281 20.445312 C 218.714844 20.640625 218.292969 20.796875 217.855469 20.894531 C 217.417969 20.992188 216.96875 21.035156 216.515625 21.027344 L 216.347656 21.027344 L 216.175781 21.007812 L 216.003906 20.992188 C 215.949219 20.992188 215.890625 20.984375 215.835938 20.976562 L 215.664062 20.953125 C 215.664062 20.953125 215.609375 20.945312 215.582031 20.9375 L 215.503906 20.917969 L 215.339844 20.886719 C 215.285156 20.878906 215.234375 20.863281 215.179688 20.855469 C 214.328125 20.648438 213.523438 20.273438 212.820312 19.761719 C 212.113281 19.253906 211.511719 18.625 211.050781 17.917969 L 210.96875 17.789062 L 210.929688 17.722656 L 210.90625 17.6875 L 210.886719 17.65625 C 210.839844 17.566406 210.78125 17.476562 210.734375 17.386719 L 210.597656 17.105469 C 210.597656 17.105469 210.570312 17.058594 210.5625 17.03125 Z M 210.554688 17.074219 " fill-opacity="1" fill-rule="nonzero"/><path fill="#000000" d="M 190.695312 4.71875 C 190.539062 4.78125 190.386719 4.847656 190.234375 4.914062 L 33.933594 4.914062 L 33.933594 4.390625 L 191.480469 4.390625 C 191.222656 4.496094 190.953125 4.609375 190.695312 4.71875 Z M 190.695312 4.71875 " fill-opacity="1" fill-rule="nonzero"/><path fill="#000000" d="M 206.257812 4.914062 C 206.007812 4.726562 205.746094 4.554688 205.480469 4.390625 L 213.019531 4.390625 C 212.753906 4.554688 212.492188 4.734375 212.242188 4.914062 Z M 206.257812 4.914062 " fill-opacity="1" fill-rule="nonzero"/><path fill="#000000" d="M 227.804688 4.71875 C 227.546875 4.609375 227.285156 4.496094 227.027344 4.390625 L 384.574219 4.390625 L 384.574219 4.914062 L 228.273438 4.914062 C 228.121094 4.847656 227.96875 4.78125 227.804688 4.71875 Z M 227.804688 4.71875 " fill-opacity="1" fill-rule="nonzero"/></svg>